# xmcd CD database file
#
# Track frame offsets:
#	150
#	14128
#	24879
#	36016
#	48919
#	59597
#	71002
#	84492
#	96851
#	117117
#	129617
#	142990
#	154705
#	167070
#	178799
#	190374
#	203531
#	216733
#	228764
#	240428
#
# Disc length: 3655 seconds
#
# Revision: 0
# Processed by: cddbd v1.5.2PL0 Copyright (c) Steve Scherf et al.
# Submitted via: CDex 1.51
#
DISCID=140e4514
DTITLE=Mai 68 - La bande Originale - CD4 - Blues
DYEAR=1968
DGENRE=Blues
TTITLE0=Muddy Watters - Rollin' Stone
TTITLE1=Roger Miller - King Of the Road
TTITLE2=John Lee Hooker - Boom Boom
TTITLE3=Ray Charles - I've Got A Woman
TTITLE4=B.B King and Joan Baez - I Shall Be Released
TTITLE5=Patsy Cline - Walkin' After Midnight
TTITLE6=Lightnin' Hopkins - Mojo Hand
TTITLE7=Memphis Slim - Mistake In Life
TTITLE8=Gram Parsons and Emmylou Harris - Love Hurts
TTITLE9=Jimmy Reed - Shame Shame Shame
TTITLE10=T-Bone Walker - T Bone Shuffle
TTITLE11=Jimmy Witherspoon - Voodoo Woman Blues
TTITLE12=Jimmy Rushing - Nobody Knows
TTITLE13=Willie Nielson - The Last Letter
TTITLE14=Sonny Boy Williamson - Mellow Chick Swing
TTITLE15=Howlin' Wolf - The Wolf Is At Your Door
TTITLE16=Elmore James - Dust my broom
TTITLE17=Huey "Piano" Smith - I Didn't Do It
TTITLE18=The Sorrows - Don't Wanna Be Free
TTITLE19=Tennessee Ernie Ford - Sixteen Tons
EXTD=YEAR: 1968
EXTT0=
EXTT1=
EXTT2=
EXTT3=
EXTT4=
EXTT5=
EXTT6=
EXTT7=
EXTT8=
EXTT9=
EXTT10=
EXTT11=
EXTT12=
EXTT13=
EXTT14=
EXTT15=
EXTT16=
EXTT17=
EXTT18=
EXTT19=
PLAYORDER=
